Coordinates
version=1
nRows=4
nColumns=107
inDegrees=yes

Units are S.I. units (second, meters, Newtons, ...)
If the header above contains a line with 'inDegrees', this indicates whether rotational values are in degrees (yes) or radians (no).

endheader
time	sternoclavicular_r2	sternoclavicular_r3	unrotscap_r3	unrotscap_r2	acromioclavicular_r2	acromioclavicular_r3	acromioclavicular_r1	unrothum_r1	unrothum_r3	unrothum_r2	elv_angle	shoulder_elv	shoulder1_r2	shoulder_rot	elbow_flexion	pro_sup	deviation	flexion	proximal_distal_r1	proximal_distal_r3	cmc_flexion	cmc_abduction	mp_flexion	ip_flexion	mcp2_flexion	mcp2_abduction	pm2_flexion	md2_flexion	mcp3_flexion	mcp3_abduction	pm3_flexion	md3_flexion	mcp4_flexion	mcp4_abduction	pm4_flexion	md4_flexion	mcp5_flexion	mcp5_abduction	pm5_flexion	md5_flexion	bicpt_tx	bicpt_ty	bicpt_tz	bicpt2_tx	bicpt2_ty	bicpt2_tz	ptpt_tx	ptpt_ty	ptpt_tz	FCUpt_tx	FCUpt_ty	FCUpt_tz	EDCpt_tx	EDCpt_ty	EDCpt_tz	APLpt_tx	APLpt_ty	APLpt_tz	FPLpt_tx	FPLpt_ty	FPLpt_tz	FPLpt2_tx	FPLpt2_ty	FPLpt2_tz	PEC1pt2_tx	PEC1pt2_ty	PEC1pt2_tz	PEC1pt3_tx	PEC1pt3_ty	PEC1pt3_tz	PEC2pt2_tx	PEC2pt2_ty	PEC2pt2_tz	PEC2pt3_tx	PEC2pt3_ty	PEC2pt3_tz	PEC3pt2_tx	PEC3pt2_ty	PEC3pt2_tz	PEC3pt3_tx	PEC3pt3_ty	PEC3pt3_tz	DELT2pt2a_tx	DELT2pt2a_ty	DELT2pt2a_tz	DELT2pt2_tx	DELT2pt2_ty	DELT2pt2_tz	LAT1pt2_tx	LAT1pt2_ty	LAT1pt2_tz	LAT1pt3_tx	LAT1pt3_ty	LAT1pt3_tz	LAT2pt2_tx	LAT2pt2_ty	LAT2pt2_tz	LAT2pt3_tx	LAT2pt3_ty	LAT2pt3_tz	LAT3pt2_tx	LAT3pt2_ty	LAT3pt2_tz	LAT3pt3_tx	LAT3pt3_ty	LAT3pt3_tz
      0.40000000	     -0.32095007	      0.13593930	     -0.13593930	      0.32095007	     -0.06498586	      0.52519286	      0.23607058	     -0.23607058	     -0.52519286	      0.06498586	    100.06798081	     75.98778162	     -1.74651574	    -29.07907962	     30.06601348	     80.11830725	      0.36312720	     -0.65981646	      0.38488529	     -0.32990823	     28.84967728	    -23.26778931	     -2.17586109	      8.22192289	     68.04811237	     11.21672488	     67.66839499	     43.43563867	     81.41998428	      0.98553195	     73.22122675	     43.76315932	     78.83069725	    -12.28470385	     82.28149705	     39.27866604	     77.59613107	    -13.95482531	     82.43916210	      5.50767422	      0.00089449	     -0.03104602	     -0.00485506	      0.01480835	     -0.01836758	     -0.00205904	      0.00163016	     -0.06872787	     -0.00650396	      0.01206767	     -0.18243201	     -0.00006519	     -0.00961417	      0.00326058	     -0.00057773	      0.00031057	      0.00012423	      0.00062114	      0.00039753	      0.00119260	      0.00067084	     -0.00000687	     -0.00025886	     -0.00031064	      0.00249071	      0.00873860	      0.00607903	     -0.00814759	      0.01967241	     -0.01865924	      0.00249071	      0.00873860	      0.00607903	      0.00054880	      0.01823708	     -0.00958291	      0.00394115	      0.00485943	      0.01595102	      0.00000000	      0.00772187	      0.00000000	     -0.00713441	     -0.03297028	     -0.00636671	      0.01846417	     -0.00072578	     -0.00705554	     -0.00088652	      0.01485985	     -0.00607903	      0.00244850	      0.02144546	     -0.01773050	     -0.00595238	      0.01287572	     -0.00544580	     -0.01241135	      0.02718676	     -0.03043735	     -0.02330294	      0.01439548	     -0.00730328	     -0.01545086	      0.03140831	     -0.03803614
      0.43333333	     -0.31851188	      0.13490660	     -0.13490660	      0.31851188	     -0.06449218	      0.52120309	      0.23427720	     -0.23427720	     -0.52120309	      0.06449218	    100.65525459	     75.41051951	     -1.75676560	    -31.98239357	     30.33897027	     82.46263151	      0.34397733	     -0.68170344	      0.36997968	     -0.34085172	     28.68938269	    -23.25094496	     -1.58985946	      7.47803865	     68.09832625	     11.34657170	     68.34183168	     42.55599500	     81.58248122	      1.03469855	     73.30021712	     44.39953985	     78.82214244	    -12.22798823	     82.87638185	     39.16721691	     77.37380289	    -13.94524545	     83.00437247	      5.51434181	      0.00090352	     -0.03107731	     -0.00486010	      0.01459130	     -0.01844173	     -0.00167307	      0.00145694	     -0.06883987	     -0.00669281	      0.01233357	     -0.18235576	     -0.00000894	     -0.00989549	      0.00338582	     -0.00064701	      0.00030830	      0.00012332	      0.00061660	      0.00039462	      0.00118386	      0.00066592	     -0.00000661	     -0.00025997	     -0.00031196	      0.00247179	      0.00867222	      0.00603285	     -0.00808569	      0.01952296	     -0.01851749	      0.00247179	      0.00867222	      0.00603285	      0.00054463	      0.01809854	     -0.00951011	      0.00391920	      0.00482251	      0.01589696	      0.00000000	      0.00760420	      0.00000000	     -0.00708022	     -0.03271981	     -0.00626901	      0.01973093	     -0.00082530	     -0.00848715	     -0.00087979	      0.01474696	     -0.00603285	      0.00242990	      0.02128254	     -0.01759580	     -0.00590716	      0.01277790	     -0.00540443	     -0.01231706	      0.02698023	     -0.03020613	     -0.02312591	      0.01428612	     -0.00724779	     -0.01533349	      0.03116971	     -0.03774719
      0.46666667	     -0.31833033	      0.13482970	     -0.13482970	      0.31833033	     -0.06445542	      0.52090601	      0.23414367	     -0.23414367	     -0.52090601	      0.06445542	    100.60535032	     75.36753572	     -1.75589461	    -32.00911755	     30.46195962	     82.46222490	      0.34360003	     -0.68145652	      0.36967993	     -0.34072826	     28.63693363	    -23.24468189	     -1.61406337	      7.46713400	     68.21428952	     11.35263491	     68.37515505	     42.57343936	     81.69543971	      1.03549552	     73.33862399	     44.41060392	     78.91118762	    -12.22919088	     82.93125253	     39.17609824	     77.46275910	    -13.94007986	     83.05296392	      5.52152755	      0.00090759	     -0.03109141	     -0.00486237	      0.01459128	     -0.01847514	     -0.00167310	      0.00145697	     -0.06883985	     -0.00669277	      0.01233353	     -0.18235576	     -0.00000893	     -0.00989544	      0.00338580	     -0.00064701	      0.00030833	      0.00012333	      0.00061665	      0.00039466	      0.00118398	      0.00066599	     -0.00000653	     -0.00026033	     -0.00031239	      0.00247038	      0.00866727	      0.00602941	     -0.00808108	      0.01951183	     -0.01850693	      0.00247038	      0.00866727	      0.00602941	      0.00054432	      0.01808822	     -0.00950469	      0.00391756	      0.00481976	      0.01589289	      0.00000000	      0.00759547	      0.00000000	     -0.00707618	     -0.03270116	     -0.00626176	      0.01974166	     -0.00082623	     -0.00850115	     -0.00087929	      0.01473855	     -0.00602941	      0.00242851	      0.02127041	     -0.01758577	     -0.00590380	      0.01277062	     -0.00540134	     -0.01231004	      0.02696485	     -0.03018891	     -0.02311273	      0.01427797	     -0.00724366	     -0.01532475	      0.03115194	     -0.03772567
      0.50000000	     -0.31919470	      0.13519581	     -0.13519581	      0.31919470	     -0.06463043	      0.52232044	      0.23477944	     -0.23477944	     -0.52232044	      0.06463043	    100.50056424	     75.57218355	     -1.75406575	    -31.21284482	     30.20807546	     81.73454849	      0.34552766	     -0.68905481	      0.37120873	     -0.34452740	     28.52518483	    -23.27162708	     -1.62452645	      7.48957592	     69.13109959	     11.36236958	     68.76014771	     44.12884690	     82.44594337	      0.95579895	     74.09476753	     44.89457293	     79.71844476	    -12.26683369	     84.06006703	     39.02188847	     78.33058169	    -13.94348554	     84.25560653	      5.48726876	      0.00089919	     -0.03106231	     -0.00485769	      0.01466001	     -0.01840617	     -0.00179373	      0.00151074	     -0.06880509	     -0.00663416	      0.01225081	     -0.18237960	     -0.00002684	     -0.00980812	      0.00334675	     -0.00062519	      0.00030738	      0.00012295	      0.00061476	      0.00039345	      0.00118035	      0.00066395	     -0.00000635	     -0.00026108	     -0.00031330	      0.00247709	      0.00869081	      0.00604578	     -0.00810302	      0.01956482	     -0.01855719	      0.00247709	      0.00869081	      0.00604578	      0.00054580	      0.01813734	     -0.00953050	      0.00392536	      0.00483285	      0.01591218	      0.00000000	      0.00763706	      0.00000000	     -0.00709539	     -0.03278996	     -0.00629630	      0.01940584	     -0.00079870	     -0.00809820	     -0.00088168	      0.01477857	     -0.00604578	      0.00243511	      0.02132817	     -0.01763352	     -0.00591983	      0.01280530	     -0.00541601	     -0.01234347	      0.02703807	     -0.03027088	     -0.02317549	      0.01431674	     -0.00726333	     -0.01536636	      0.03123653	     -0.03782811
